<?xml version="1.0" encoding="UTF-8"?>
<svg id="Layer_2" data-name="Layer 2" xmlns="http://www.w3.org/2000/svg" viewBox="0 0 714.88 817.18">
  <defs>
    <style>
      .cls-1 {
        fill: #dfdede;
      }
    </style>
  </defs>
  <g id="Layer_1-2" data-name="Layer 1">
    <g>
      <g>
        <path class="cls-1" d="M375.78,308.79l-.77,102.12-.66,36.61,.42,1.27,.24-32.07,.83-107.93h-.06Z"/>
        <path class="cls-1" d="M585.13,183.88c0,136.6-88.27,183.28-170,183.85l.18-23.86c.19-24.68,12.63-47.6,33.08-61.42,27.12-18.32,45.37-46.2,45.37-86.45,0-32.77-8.46-58.51-26.98-77.18-10.71-10.84-24.8-19.3-42.55-25.4-23.05-7.93-52.3-11.9-88.45-11.9H164.98l-1.95,230.43h61.49l-.68,87.82h-60.81l-1.93,214.44c0,26.84,7.99,40.75,50.24,40.75v40.76H0v-40.76c39.45,0,48.55-11.66,48.55-40.75l3.87-532.69c0-31.18-22.67-40.76-52.42-40.76V0H374.57c93.14,0,210.56,45.11,210.56,183.88Z"/>
        <path class="cls-1" d="M621.28,695.72h-64.5c-34.28,0-60.63-6.64-80.42-17.69-24.26-13.51-38.65-33.6-45.67-56.12h0c-11.33-35.07-16.93-71.73-16.58-108.58,.4-42.25,.89-95.69,1-111.52,39.9,0,50.83,20.87,70.37,63.23,0,0,26.07,84.27,36.77,111.64,11.75,30.07,34.11,78.28,99.04,78.28v40.76Z"/>
      </g>
      <path class="cls-1" d="M714.88,654.96l-10.17,162.22H210.62v-40.76c34.74,0,50.48-4.33,50.48-40.76l2.48-321.99,.68-87.81,.72-93.3c0-36.78-24.92-40.76-54.35-40.76v-40.76h216.41v40.76c-29.65,0-50.48,4.97-50.48,40.76l-.72,93.02v1.09l-.83,107.93-.24,32.07-2.09,268.99h238.86c38.87,0,56.52-19.87,56.52-80.7h46.82Z"/>
    </g>
  </g>
</svg>